<svg width="30" height="31" viewBox="0 0 30 31" fill="none" xmlns="http://www.w3.org/2000/svg">
<path d="M3.4375 26.0178H26.5625" stroke="#24427C" stroke-linecap="round" stroke-linejoin="round"/>
<path d="M7.85188 5.78159H5.4625C4.87846 5.78159 4.405 6.25504 4.405 6.83909V21.9041C4.405 22.4881 4.87846 22.9616 5.4625 22.9616H7.85188C8.43592 22.9616 8.90938 22.4881 8.90938 21.9041V6.83909C8.90938 6.25504 8.43592 5.78159 7.85188 5.78159Z" stroke="#24427C" stroke-linecap="round" stroke-linejoin="round"/>
<path d="M4.405 9.00284H8.90875" stroke="#24427C" stroke-linecap="round" stroke-linejoin="round"/>
<path d="M12.3556 4.06908H9.96625C9.38221 4.06908 8.90875 4.54254 8.90875 5.12658V21.9053C8.90875 22.4894 9.38221 22.9628 9.96625 22.9628H12.3556C12.9397 22.9628 13.4131 22.4894 13.4131 21.9053V5.12658C13.4131 4.54254 12.9397 4.06908 12.3556 4.06908Z" stroke="#24427C" stroke-linecap="round" stroke-linejoin="round"/>
<path d="M8.90875 7.52783H13.4137" stroke="#24427C" stroke-linecap="round" stroke-linejoin="round"/>
<path d="M16.8606 5.78159H14.4712C13.8872 5.78159 13.4137 6.25504 13.4137 6.83909V21.9041C13.4137 22.4881 13.8872 22.9616 14.4712 22.9616H16.8606C17.4447 22.9616 17.9181 22.4881 17.9181 21.9041V6.83909C17.9181 6.25504 17.4447 5.78159 16.8606 5.78159Z" stroke="#24427C" stroke-linecap="round" stroke-linejoin="round"/>
<path d="M13.4137 9.00284H17.9181" stroke="#24427C" stroke-linecap="round" stroke-linejoin="round"/>
<path d="M21.7383 5.70468L19.3853 6.11959C18.8101 6.22101 18.426 6.76949 18.5275 7.34466L21.1435 22.1808C21.2449 22.756 21.7934 23.14 22.3685 23.0386L24.7216 22.6237C25.2968 22.5223 25.6808 21.9738 25.5794 21.3986L22.9634 6.56248C22.862 5.98731 22.3135 5.60326 21.7383 5.70468Z" stroke="#24427C" stroke-linecap="round" stroke-linejoin="round"/>
<path d="M18.9031 9.47595L23.3394 8.69408" stroke="#24427C" stroke-linecap="round" stroke-linejoin="round"/>
</svg>
