<svg width="40" height="41" viewBox="0 0 40 41" fill="none" xmlns="http://www.w3.org/2000/svg">
<path d="M17.6033 26.5568L28.2633 15.8968L27.0833 14.7168L17.6033 24.1968L12.8533 19.4468L11.6733 20.6268L17.6033 26.5568ZM20.005 35.0435C17.9317 35.0435 15.9817 34.6501 14.155 33.8635C12.3294 33.0757 10.7411 32.0068 9.39 30.6568C8.03889 29.3068 6.96944 27.7201 6.18167 25.8968C5.39389 24.0735 5 22.124 5 20.0485C5 17.9729 5.39333 16.0229 6.18 14.1985C6.96667 12.374 8.03556 10.7857 9.38667 9.43346C10.7378 8.08124 12.3244 7.01179 14.1467 6.22513C15.9689 5.43846 17.9183 5.04457 19.995 5.04346C22.0717 5.04235 24.0217 5.43568 25.845 6.22346C27.6683 7.01124 29.2567 8.08013 30.61 9.43013C31.9633 10.7801 33.0328 12.3668 33.8183 14.1901C34.6039 16.0135 34.9978 17.9629 35 20.0385C35.0022 22.114 34.6089 24.064 33.82 25.8885C33.0311 27.7129 31.9622 29.3012 30.6133 30.6535C29.2644 32.0057 27.6778 33.0751 25.8533 33.8618C24.0289 34.6485 22.0794 35.0424 20.005 35.0435ZM20 33.3768C23.7222 33.3768 26.875 32.0851 29.4583 29.5018C32.0417 26.9185 33.3333 23.7657 33.3333 20.0435C33.3333 16.3212 32.0417 13.1685 29.4583 10.5851C26.875 8.00179 23.7222 6.71013 20 6.71013C16.2778 6.71013 13.125 8.00179 10.5417 10.5851C7.95833 13.1685 6.66667 16.3212 6.66667 20.0435C6.66667 23.7657 7.95833 26.9185 10.5417 29.5018C13.125 32.0851 16.2778 33.3768 20 33.3768Z" fill="#2B4D89"/>
</svg>
