<svg width="36" height="37" viewBox="0 0 36 37" fill="none" xmlns="http://www.w3.org/2000/svg">
<path d="M17 27.0435H19V16.0435H17V27.0435ZM18 13.1975C18.3493 13.1975 18.6413 13.0795 18.876 12.8435C19.112 12.6075 19.23 12.3155 19.23 11.9675C19.23 11.6181 19.112 11.3255 18.876 11.0895C18.6413 10.8535 18.3493 10.7355 18 10.7355C17.6507 10.7355 17.3587 10.8535 17.124 11.0895C16.8893 11.3255 16.7713 11.6181 16.77 11.9675C16.7687 12.3168 16.8867 12.6088 17.124 12.8435C17.3587 13.0795 17.6507 13.1975 18 13.1975ZM18.006 36.0435C15.518 36.0435 13.178 35.5715 10.986 34.6275C8.79533 33.6821 6.88933 32.3995 5.268 30.7795C3.64667 29.1595 2.36333 27.2555 1.418 25.0675C0.472667 22.8795 0 20.5401 0 18.0495C0 15.5588 0.472 13.2188 1.416 11.0295C2.36 8.84013 3.64267 6.93413 5.264 5.31146C6.88533 3.68879 8.78933 2.40546 10.976 1.46146C13.1627 0.51746 15.502 0.0447932 17.994 0.0434598C20.486 0.0421265 22.826 0.514126 25.014 1.45946C27.202 2.40479 29.108 3.68746 30.732 5.30746C32.356 6.92746 33.6393 8.83146 34.582 11.0195C35.5247 13.2075 35.9973 15.5468 36 18.0375C36.0027 20.5281 35.5307 22.8681 34.584 25.0575C33.6373 27.2468 32.3547 29.1528 30.736 30.7755C29.1173 32.3981 27.2133 33.6815 25.024 34.6255C22.8347 35.5695 20.4953 36.0421 18.006 36.0435ZM18 34.0435C22.4667 34.0435 26.25 32.4935 29.35 29.3935C32.45 26.2935 34 22.5101 34 18.0435C34 13.5768 32.45 9.79346 29.35 6.69346C26.25 3.59346 22.4667 2.04346 18 2.04346C13.5333 2.04346 9.75 3.59346 6.65 6.69346C3.55 9.79346 2 13.5768 2 18.0435C2 22.5101 3.55 26.2935 6.65 29.3935C9.75 32.4935 13.5333 34.0435 18 34.0435Z" fill="#2B4D89"/>
</svg>
