<svg width="30" height="31" viewBox="0 0 30 31" fill="none" xmlns="http://www.w3.org/2000/svg">
<path d="M15 27.231C21.731 27.231 27.1875 21.7744 27.1875 15.0435C27.1875 8.31249 21.731 2.85596 15 2.85596C8.26903 2.85596 2.8125 8.31249 2.8125 15.0435C2.8125 21.7744 8.26903 27.231 15 27.231Z" stroke="#24427C" stroke-linecap="round" stroke-linejoin="round"/>
<path d="M11.3344 19.6435C11.6751 20.0735 12.114 20.4154 12.6143 20.6405C13.1146 20.8656 13.6616 20.9674 14.2094 20.9372H15.9344C16.6969 20.9372 17.4281 20.6343 17.9673 20.0951C18.5065 19.556 18.8094 18.8247 18.8094 18.0622C18.8094 17.2997 18.5065 16.5684 17.9673 16.0293C17.4281 15.4901 16.6969 15.1872 15.9344 15.1872H14.0656C13.3031 15.1872 12.5719 14.8843 12.0327 14.3451C11.4935 13.806 11.1906 13.0747 11.1906 12.3122C11.1906 11.5497 11.4935 10.8184 12.0327 10.2793C12.5719 9.74011 13.3031 9.43721 14.0656 9.43721H15.7906C17.0844 9.43721 17.9469 9.72471 18.6656 10.731M14.9281 7.85596V22.231" stroke="#24427C" stroke-linecap="round" stroke-linejoin="round"/>
</svg>
