<svg width="30" height="31" viewBox="0 0 30 31" fill="none" xmlns="http://www.w3.org/2000/svg">
<path d="M15.0467 23.7601C15.4156 23.7601 15.7267 23.6335 15.98 23.3801C16.2333 23.1268 16.3594 22.8157 16.3583 22.4468C16.3572 22.0779 16.23 21.7668 15.9767 21.5135C15.7233 21.2601 15.4122 21.1335 15.0433 21.1335C14.6744 21.1335 14.3633 21.2607 14.11 21.5151C13.8567 21.7696 13.73 22.0807 13.73 22.4485C13.73 22.8162 13.8578 23.1273 14.1133 23.3818C14.3689 23.6362 14.68 23.7629 15.0467 23.7618M14.1867 18.2418H15.795C15.8372 17.5173 15.9733 16.9285 16.2033 16.4751C16.4333 16.0229 16.9061 15.4451 17.6217 14.7418C18.3661 13.9985 18.9194 13.3323 19.2817 12.7435C19.645 12.1546 19.8267 11.4735 19.8267 10.7001C19.8267 9.38679 19.3656 8.34013 18.4433 7.56013C17.5211 6.78013 16.4289 6.39013 15.1667 6.39013C13.9678 6.39013 12.95 6.71568 12.1133 7.36679C11.2767 8.0179 10.6639 8.76679 10.275 9.61346L11.8083 10.2485C12.075 9.64179 12.4567 9.10568 12.9533 8.64013C13.45 8.17457 14.1667 7.94124 15.1033 7.94013C16.1844 7.94013 16.9733 8.23679 17.47 8.83013C17.9689 9.42346 18.2183 10.0757 18.2183 10.7868C18.2183 11.3646 18.0622 11.8801 17.75 12.3335C17.4378 12.7868 17.0322 13.2435 16.5333 13.7035C15.5667 14.5946 14.9333 15.3501 14.6333 15.9701C14.3356 16.589 14.1867 17.3462 14.1867 18.2418ZM15.005 30.0435C12.9317 30.0435 10.9817 29.6501 9.155 28.8635C7.32944 28.0757 5.74111 27.0068 4.39 25.6568C3.03889 24.3068 1.96944 22.7201 1.18167 20.8968C0.393889 19.0735 0 17.124 0 15.0485C0 12.9729 0.393333 11.0229 1.18 9.19846C1.96667 7.37402 3.03556 5.78568 4.38667 4.43346C5.73778 3.08124 7.32444 2.01179 9.14667 1.22513C10.9689 0.43846 12.9183 0.0445705 14.995 0.0434594C17.0717 0.0423483 19.0217 0.435682 20.845 1.22346C22.6683 2.01124 24.2567 3.08013 25.61 4.43013C26.9633 5.78013 28.0328 7.36679 28.8183 9.19013C29.6039 11.0135 29.9978 12.9629 30 15.0385C30.0022 17.114 29.6089 19.064 28.82 20.8885C28.0311 22.7129 26.9622 24.3012 25.6133 25.6535C24.2644 27.0057 22.6778 28.0751 20.8533 28.8618C19.0289 29.6485 17.0794 30.0424 15.005 30.0435ZM15 28.3768C18.7222 28.3768 21.875 27.0851 24.4583 24.5018C27.0417 21.9185 28.3333 18.7657 28.3333 15.0435C28.3333 11.3212 27.0417 8.16846 24.4583 5.58513C21.875 3.00179 18.7222 1.71013 15 1.71013C11.2778 1.71013 8.125 3.00179 5.54167 5.58513C2.95833 8.16846 1.66667 11.3212 1.66667 15.0435C1.66667 18.7657 2.95833 21.9185 5.54167 24.5018C8.125 27.0851 11.2778 28.3768 15 28.3768Z" fill="#2B4D89"/>
</svg>
