<svg width="125" height="36" viewBox="0 0 125 36" fill="none" xmlns="http://www.w3.org/2000/svg">
<path d="M14.7222 10H2.27778C1.29556 10 0.5 10.7956 0.5 11.7778V24.2222C0.5 25.2044 1.29556 26 2.27778 26H14.7222C15.7044 26 16.5 25.2044 16.5 24.2222V11.7778C16.5 10.7956 15.7044 10 14.7222 10ZM5.83333 22.4444H3.59067V16.2222H5.83333V22.4444ZM4.67244 15.0818C3.98711 15.0818 3.52933 14.6249 3.52933 14.0151C3.52933 13.4053 3.98622 12.9484 4.748 12.9484C5.43333 12.9484 5.89111 13.4053 5.89111 14.0151C5.89111 14.6249 5.43422 15.0818 4.67244 15.0818ZM13.8333 22.4444H11.6627V19.0436C11.6627 18.1031 11.084 17.8862 10.8671 17.8862C10.6502 17.8862 9.92667 18.0311 9.92667 19.0436C9.92667 19.1884 9.92667 22.4444 9.92667 22.4444H7.684V16.2222H9.92667V17.0907C10.2156 16.584 10.7942 16.2222 11.8796 16.2222C12.9649 16.2222 13.8333 17.0907 13.8333 19.0436V22.4444Z" fill="#24427C"/>
<path d="M42.7693 14.4338L47.7747 21.5662H46.444L41.4476 14.4338H42.7693ZM52.5 12.6667V23.3333C52.5 24.8062 51.3062 26 49.8333 26H39.1667C37.6938 26 36.5 24.8062 36.5 23.3333V12.6667C36.5 11.1938 37.6938 10 39.1667 10H49.8333C51.3062 10 52.5 11.1938 52.5 12.6667ZM49.4227 22.4444L45.7018 17.12L48.7436 13.5556H47.5782L45.1747 16.3644L43.2129 13.5556H39.7907L43.2938 18.5627L39.972 22.4444H41.1569L43.8244 19.3191L46.0093 22.4444H49.4227Z" fill="#24427C"/>
<path d="M86.7222 10H74.2778C73.2956 10 72.5 10.7956 72.5 11.7778V24.2222C72.5 25.2044 73.2956 26 74.2778 26H81.052V19.8124H78.9693V17.3902H81.052V15.608C81.052 13.5422 82.3151 12.416 84.1587 12.416C84.78 12.4142 85.4004 12.4462 86.0182 12.5093V14.6693H84.7489C83.7444 14.6693 83.5489 15.144 83.5489 15.8444V17.3867H85.9489L85.6369 19.8089H83.5347V26H86.7222C87.7044 26 88.5 25.2044 88.5 24.2222V11.7778C88.5 10.7956 87.7044 10 86.7222 10Z" fill="#24427C"/>
<path d="M112.944 10C110.49 10 108.5 11.9902 108.5 14.4444V21.5556C108.5 24.0098 110.49 26 112.944 26H120.056C122.51 26 124.5 24.0098 124.5 21.5556V14.4444C124.5 11.9902 122.51 10 120.056 10H112.944ZM121.833 11.7778C122.324 11.7778 122.722 12.176 122.722 12.6667C122.722 13.1573 122.324 13.5556 121.833 13.5556C121.343 13.5556 120.944 13.1573 120.944 12.6667C120.944 12.176 121.343 11.7778 121.833 11.7778ZM116.5 13.5556C118.954 13.5556 120.944 15.5458 120.944 18C120.944 20.4542 118.954 22.4444 116.5 22.4444C114.046 22.4444 112.056 20.4542 112.056 18C112.056 15.5458 114.046 13.5556 116.5 13.5556ZM116.5 15.3333C115.027 15.3333 113.833 16.5272 113.833 18C113.833 19.4728 115.027 20.6667 116.5 20.6667C117.973 20.6667 119.167 19.4728 119.167 18C119.167 16.5272 117.973 15.3333 116.5 15.3333Z" fill="#24427C"/>
</svg>
