<svg width="30" height="31" viewBox="0 0 30 31" fill="none" xmlns="http://www.w3.org/2000/svg">
<path d="M11.1287 25.5672C11.1287 26.0806 11.3327 26.5729 11.6957 26.9359C12.0587 27.2989 12.551 27.5028 13.0644 27.5028C13.5777 27.5028 14.0701 27.2989 14.4331 26.9359C14.7961 26.5729 15 26.0806 15 25.5672V14.7716M15 14.7716C15 14.3715 15.0788 13.9753 15.2319 13.6056C15.385 13.2359 15.6095 12.9 15.8924 12.6171C16.1753 12.3342 16.5112 12.1098 16.8809 11.9566C17.2506 11.8035 17.6468 11.7247 18.0469 11.7247C18.447 11.7247 18.8432 11.8035 19.2129 11.9566C19.5825 12.1098 19.9184 12.3342 20.2013 12.6171C20.4843 12.9 20.7087 13.2359 20.8618 13.6056C21.0149 13.9753 21.0938 14.3715 21.0938 14.7716C21.0938 13.9635 21.4148 13.1885 21.9862 12.6171C22.5576 12.0457 23.3325 11.7247 24.1406 11.7247C24.9487 11.7247 25.7237 12.0457 26.2951 12.6171C26.8665 13.1885 27.1875 13.9635 27.1875 14.7716C27.1875 11.5393 25.9035 8.43932 23.6179 6.15372C21.3323 3.86812 18.2323 2.58408 15 2.58408C11.7677 2.58408 8.66774 3.86812 6.38214 6.15372C4.09654 8.43932 2.8125 11.5393 2.8125 14.7716C2.8125 13.9635 3.13351 13.1885 3.70491 12.6171C4.27631 12.0457 5.05129 11.7247 5.85938 11.7247C6.66746 11.7247 7.44244 12.0457 8.01384 12.6171C8.58524 13.1885 8.90625 13.9635 8.90625 14.7716C8.90625 13.9635 9.22726 13.1885 9.79866 12.6171C10.3701 12.0457 11.145 11.7247 11.9531 11.7247C12.7612 11.7247 13.5362 12.0457 14.1076 12.6171C14.679 13.1885 15 13.9635 15 14.7716Z" stroke="#24427C" stroke-linecap="round" stroke-linejoin="round"/>
</svg>
